<svg width="12" height="4" viewBox="0 0 12 4" fill="none" xmlns="http://www.w3.org/2000/svg">
<path fill-rule="evenodd" clip-rule="evenodd" d="M1.75 3.5C0.783504 3.5 0 2.71652 0 1.75C0 0.783475 0.783504 0 1.75 0C2.7165 0 3.5 0.783475 3.5 1.75C3.5 2.71652 2.7165 3.5 1.75 3.5Z" fill="#121212" fill-opacity="0.6"/>
<path fill-rule="evenodd" clip-rule="evenodd" d="M5.83337 3.5C4.86685 3.5 4.08337 2.71652 4.08337 1.75C4.08337 0.783475 4.86685 0 5.83337 0C6.7999 0 7.58337 0.783475 7.58337 1.75C7.58337 2.71652 6.7999 3.5 5.83337 3.5Z" fill="#121212" fill-opacity="0.6"/>
<path fill-rule="evenodd" clip-rule="evenodd" d="M8.16663 1.75C8.16663 2.71652 8.9501 3.5 9.91663 3.5C10.8832 3.5 11.6666 2.71652 11.6666 1.75C11.6666 0.783475 10.8832 0 9.91663 0C8.9501 0 8.16663 0.783475 8.16663 1.75Z" fill="#121212" fill-opacity="0.6"/>
</svg>
