<svg width="14" height="14" viewBox="0 0 14 14" fill="none" xmlns="http://www.w3.org/2000/svg">
<g clip-path="url(#clip0_128_582)">
<path d="M7.34149 8.83272C7.79258 9.15045 8.26554 9.41768 8.75303 9.61992C9.05572 9.72965 9.53074 9.41878 9.87997 9.19024C9.96723 9.13312 10.0467 9.08116 10.1137 9.04212L10.1356 9.02981C10.4646 8.84508 10.8299 8.63992 11.2996 8.73879C11.7216 8.82547 13.1696 9.96653 13.5697 10.371C13.8317 10.631 13.9772 10.9054 13.999 11.187C14.0426 12.2343 12.6384 13.4114 12.3037 13.6136C11.5907 14.1336 10.6375 14.1263 9.48792 13.6063C8.25824 13.108 6.78849 12.0608 5.36971 10.7898C4.86182 10.3348 3.88647 9.3768 3.60891 9.05691C2.17552 7.50425 0.967695 5.83598 0.400176 4.48547C0.130976 3.91494 0 3.38773 0 2.91832C0 2.45613 0.130976 2.04447 0.385629 1.69058C0.538425 1.42338 1.76807 -0.0354353 2.8522 0.000658403C3.12142 0.0295334 3.3979 0.166772 3.66709 0.426756C4.07454 0.823951 5.24598 2.26111 5.33329 2.68721C5.4329 3.14628 5.22634 3.50864 5.04024 3.83513L5.02769 3.85717C4.98575 3.92963 4.9289 4.0156 4.86672 4.10958C4.63772 4.45578 4.33672 4.91075 4.44489 5.20046C4.71482 5.86485 5.10045 6.51487 5.56538 7.11424C6.08136 7.73115 6.89037 8.51493 7.34149 8.83272Z" fill="white"/>
</g>
<defs>
<clipPath id="clip0_128_582">
<rect width="14" height="14" fill="white"/>
</clipPath>
</defs>
</svg>
