<svg width="11" height="13" viewBox="0 0 11 13" fill="none" xmlns="http://www.w3.org/2000/svg">
<path d="M5.25 1.75C4.21165 1.75 3.19662 2.05791 2.33326 2.63478C1.4699 3.21166 0.796995 4.0316 0.399635 4.99091C0.00227475 5.95022 -0.101693 7.00582 0.10088 8.02422C0.303452 9.04262 0.803466 9.97808 1.53769 10.7123C2.27192 11.4465 3.20738 11.9466 4.22578 12.1491C5.24418 12.3517 6.29978 12.2477 7.25909 11.8504C8.2184 11.453 9.03834 10.7801 9.61522 9.91674C10.1921 9.05339 10.5 8.03835 10.5 7C10.4984 5.6081 9.94478 4.27367 8.96056 3.28945C7.97633 2.30523 6.6419 1.75159 5.25 1.75ZM5.25 11.375C4.38471 11.375 3.53885 11.1184 2.81938 10.6377C2.09992 10.1569 1.53916 9.47367 1.20803 8.67424C0.876896 7.87481 0.790257 6.99515 0.959067 6.14648C1.12788 5.29781 1.54456 4.51826 2.15641 3.90641C2.76827 3.29455 3.54782 2.87787 4.39648 2.70906C5.24515 2.54025 6.12482 2.62689 6.92424 2.95803C7.72367 3.28916 8.40695 3.84992 8.88768 4.56938C9.36841 5.28885 9.625 6.13471 9.625 7C9.6237 8.15992 9.16235 9.27196 8.34216 10.0922C7.52197 10.9123 6.40992 11.3737 5.25 11.375ZM7.74703 4.50297C7.78771 4.5436 7.81998 4.59185 7.842 4.64496C7.86401 4.69808 7.87535 4.75501 7.87535 4.8125C7.87535 4.86999 7.86401 4.92692 7.842 4.98004C7.81998 5.03315 7.78771 5.0814 7.74703 5.12203L5.55953 7.30953C5.51889 7.35018 5.47063 7.38242 5.41752 7.40442C5.36441 7.42642 5.30749 7.43774 5.25 7.43774C5.19252 7.43774 5.13559 7.42642 5.08249 7.40442C5.02938 7.38242 4.98112 7.35018 4.94047 7.30953C4.89982 7.26888 4.86758 7.22063 4.84558 7.16752C4.82358 7.11441 4.81226 7.05749 4.81226 7C4.81226 6.94251 4.82358 6.88559 4.84558 6.83248C4.86758 6.77937 4.89982 6.73112 4.94047 6.69047L7.12797 4.50297C7.1686 4.46229 7.21685 4.43002 7.26997 4.40801C7.32308 4.38599 7.38001 4.37466 7.4375 4.37466C7.495 4.37466 7.55193 4.38599 7.60504 4.40801C7.65815 4.43002 7.7064 4.46229 7.74703 4.50297ZM3.5 0.4375C3.5 0.321468 3.5461 0.210188 3.62814 0.128141C3.71019 0.0460936 3.82147 0 3.9375 0H6.5625C6.67853 0 6.78981 0.0460936 6.87186 0.128141C6.95391 0.210188 7 0.321468 7 0.4375C7 0.553532 6.95391 0.664812 6.87186 0.746859C6.78981 0.828906 6.67853 0.875 6.5625 0.875H3.9375C3.82147 0.875 3.71019 0.828906 3.62814 0.746859C3.5461 0.664812 3.5 0.553532 3.5 0.4375Z" fill="#121212"/>
</svg>
