<svg width="14" height="15" viewBox="0 0 14 15" fill="none" xmlns="http://www.w3.org/2000/svg">
<path d="M13.3445 10.6833C12.9543 10.0111 12.3742 8.10914 12.3742 5.625C12.3742 4.13316 11.7816 2.70242 10.7267 1.64752C9.67177 0.592632 8.24103 0 6.74919 0C5.25734 0 3.8266 0.592632 2.77171 1.64752C1.71682 2.70242 1.12419 4.13316 1.12419 5.625C1.12419 8.10984 0.543404 10.0111 0.153169 10.6833C0.0535159 10.8542 0.000685754 11.0483 6.63115e-06 11.2461C-0.000672492 11.444 0.0508235 11.6385 0.149301 11.81C0.247779 11.9816 0.389757 12.1242 0.560915 12.2234C0.732074 12.3226 0.926362 12.3749 1.12419 12.375H3.99364C4.12342 13.01 4.46855 13.5808 4.97065 13.9906C5.47276 14.4005 6.10103 14.6244 6.74919 14.6244C7.39734 14.6244 8.02561 14.4005 8.52772 13.9906C9.02982 13.5808 9.37495 13.01 9.50473 12.375H12.3742C12.5719 12.3747 12.7661 12.3223 12.9372 12.2231C13.1083 12.1239 13.2501 11.9813 13.3485 11.8097C13.4469 11.6382 13.4984 11.4437 13.4977 11.246C13.497 11.0482 13.4441 10.8541 13.3445 10.6833ZM6.74919 13.5C6.40031 13.4999 6.06004 13.3917 5.77522 13.1902C5.49039 12.9887 5.27501 12.7039 5.15872 12.375H8.33965C8.22336 12.7039 8.00798 12.9887 7.72316 13.1902C7.43833 13.3917 7.09806 13.4999 6.74919 13.5ZM1.12419 11.25C1.66559 10.3191 2.24919 8.16187 2.24919 5.625C2.24919 4.43153 2.72329 3.28693 3.5672 2.44302C4.41112 1.59911 5.55571 1.125 6.74919 1.125C7.94266 1.125 9.08725 1.59911 9.93117 2.44302C10.7751 3.28693 11.2492 4.43153 11.2492 5.625C11.2492 8.15977 11.8314 10.317 12.3742 11.25H1.12419Z" fill="#121212"/>
</svg>
