<svg width="14" height="14" viewBox="0 0 14 14" fill="none" xmlns="http://www.w3.org/2000/svg">
<path d="M12.19 1.81008C11.6433 1.26334 10.7568 1.26334 10.2101 1.81008L4.90002 7.12014V9.10002H6.87992L12.19 3.78997C12.7367 3.24323 12.7367 2.3568 12.19 1.81008Z" fill="#121212"/>
<path fill-rule="evenodd" clip-rule="evenodd" d="M1.40002 4.20005C1.40002 3.42685 2.02683 2.80005 2.80002 2.80005H5.60002C5.98662 2.80005 6.30002 3.11345 6.30002 3.50005C6.30002 3.88664 5.98662 4.20005 5.60002 4.20005H2.80002V11.2H9.80002V8.40005C9.80002 8.01344 10.1134 7.70005 10.5 7.70005C10.8866 7.70005 11.2 8.01344 11.2 8.40005V11.2C11.2 11.9733 10.5732 12.6 9.80002 12.6H2.80002C2.02683 12.6 1.40002 11.9733 1.40002 11.2V4.20005Z" fill="#121212"/>
</svg>
