<svg width="19" height="19" viewBox="0 0 19 19" fill="none" xmlns="http://www.w3.org/2000/svg">
<path d="M18.75 9.375C18.75 9.5822 18.6677 9.78091 18.5212 9.92743C18.3747 10.0739 18.176 10.1562 17.9688 10.1562H10.1562V17.9688C10.1562 18.176 10.0739 18.3747 9.92743 18.5212C9.78091 18.6677 9.5822 18.75 9.375 18.75C9.1678 18.75 8.96909 18.6677 8.82257 18.5212C8.67606 18.3747 8.59375 18.176 8.59375 17.9688V10.1562H0.78125C0.57405 10.1562 0.375336 10.0739 0.228823 9.92743C0.0823102 9.78091 0 9.5822 0 9.375C0 9.1678 0.0823102 8.96909 0.228823 8.82257C0.375336 8.67606 0.57405 8.59375 0.78125 8.59375H8.59375V0.78125C8.59375 0.57405 8.67606 0.375336 8.82257 0.228823C8.96909 0.0823102 9.1678 0 9.375 0C9.5822 0 9.78091 0.0823102 9.92743 0.228823C10.0739 0.375336 10.1562 0.57405 10.1562 0.78125V8.59375H17.9688C18.176 8.59375 18.3747 8.67606 18.5212 8.82257C18.6677 8.96909 18.75 9.1678 18.75 9.375Z" fill="#1C1C1C"/>
</svg>
