<svg width="7" height="7" viewBox="0 0 7 7" fill="none" xmlns="http://www.w3.org/2000/svg">
<path fill-rule="evenodd" clip-rule="evenodd" d="M3.5 0C3.68564 0 3.86372 0.0737521 3.99497 0.205023C4.12622 0.336301 4.2 0.514346 4.2 0.7V2.8H6.3C6.48564 2.8 6.66372 2.87375 6.79497 3.00502C6.92622 3.1363 7 3.31435 7 3.5C7 3.68564 6.92622 3.86372 6.79497 3.99497C6.66372 4.12622 6.48564 4.2 6.3 4.2H4.2V6.3C4.2 6.48564 4.12622 6.66372 3.99497 6.79497C3.86372 6.92622 3.68564 7 3.5 7C3.31435 7 3.1363 6.92622 3.00502 6.79497C2.87375 6.66372 2.8 6.48564 2.8 6.3V4.2H0.7C0.514346 4.2 0.336301 4.12622 0.205023 3.99497C0.0737521 3.86372 0 3.68564 0 3.5C0 3.31435 0.0737521 3.1363 0.205023 3.00502C0.336301 2.87375 0.514346 2.8 0.7 2.8H2.8V0.7C2.8 0.514346 2.87375 0.336301 3.00502 0.205023C3.1363 0.0737521 3.31435 0 3.5 0Z" fill="white"/>
</svg>
