<svg width="15" height="15" viewBox="0 0 15 15" fill="none" xmlns="http://www.w3.org/2000/svg">
<path d="M10.125 6.1845C10.125 6.33368 10.0657 6.47676 9.96025 6.58225C9.85476 6.68774 9.71168 6.747 9.5625 6.747H5.0625C4.91332 6.747 4.77024 6.68774 4.66475 6.58225C4.55926 6.47676 4.5 6.33368 4.5 6.1845C4.5 6.03532 4.55926 5.89224 4.66475 5.78675C4.77024 5.68126 4.91332 5.622 5.0625 5.622H9.5625C9.71168 5.622 9.85476 5.68126 9.96025 5.78675C10.0657 5.89224 10.125 6.03532 10.125 6.1845ZM9.5625 7.872H5.0625C4.91332 7.872 4.77024 7.93126 4.66475 8.03675C4.55926 8.14224 4.5 8.28532 4.5 8.4345C4.5 8.58368 4.55926 8.72676 4.66475 8.83225C4.77024 8.93774 4.91332 8.997 5.0625 8.997H9.5625C9.71168 8.997 9.85476 8.93774 9.96025 8.83225C10.0657 8.72676 10.125 8.58368 10.125 8.4345C10.125 8.28532 10.0657 8.14224 9.96025 8.03675C9.85476 7.93126 9.71168 7.872 9.5625 7.872ZM14.625 7.3095C14.6253 8.57199 14.2987 9.81304 13.677 10.9119C13.0554 12.0107 12.1598 12.9298 11.0775 13.5798C9.99524 14.2299 8.7631 14.5886 7.50104 14.6212C6.23897 14.6537 4.98998 14.359 3.87562 13.7656L1.48148 14.5636C1.28326 14.6297 1.07055 14.6393 0.867183 14.5913C0.663816 14.5434 0.477835 14.4397 0.330083 14.2919C0.182331 14.1442 0.0786477 13.9582 0.0306545 13.7548C-0.0173387 13.5515 -0.00774539 13.3387 0.0583592 13.1405L0.856406 10.7464C0.334792 9.76568 0.0434511 8.67904 0.00449813 7.56893C-0.0344548 6.45883 0.180004 5.35444 0.631596 4.33959C1.08319 3.32475 1.76004 2.42612 2.61079 1.71192C3.46153 0.997714 4.4638 0.486711 5.54152 0.217694C6.61924 -0.0513229 7.74408 -0.0712825 8.83066 0.15933C9.91725 0.389942 10.937 0.865066 11.8126 1.54864C12.6881 2.23221 13.3964 3.10626 13.8837 4.10444C14.371 5.10263 14.6245 6.19871 14.625 7.3095ZM13.5 7.3095C13.4997 6.36037 13.2811 5.42402 12.8611 4.5729C12.441 3.72178 11.8308 2.9787 11.0776 2.40115C10.3244 1.8236 9.44846 1.42707 8.5175 1.24223C7.58654 1.05739 6.62554 1.08919 5.70884 1.33519C4.79214 1.58118 3.94432 2.03477 3.23097 2.66085C2.51762 3.28694 1.95786 4.06874 1.59501 4.94578C1.23216 5.82281 1.07593 6.77157 1.13843 7.71864C1.20092 8.66571 1.48045 9.58571 1.95539 10.4075C1.99525 10.4765 2.02 10.5531 2.028 10.6324C2.036 10.7117 2.02707 10.7917 2.0018 10.8673L1.125 13.497L3.75469 12.6202C3.81196 12.6007 3.87206 12.5907 3.93258 12.5907C4.03137 12.5908 4.12837 12.617 4.21383 12.6666C5.15447 13.2108 6.22186 13.4977 7.30859 13.4984C8.39533 13.4991 9.46308 13.2136 10.4044 12.6705C11.3457 12.1275 12.1274 11.3461 12.6709 10.405C13.2143 9.46387 13.5002 8.39624 13.5 7.3095Z" fill="#121212"/>
</svg>
