<svg width="11" height="11" viewBox="0 0 11 11" fill="none" xmlns="http://www.w3.org/2000/svg">
<path fill-rule="evenodd" clip-rule="evenodd" d="M0.263601 0.263601C0.615078 -0.087867 1.18492 -0.087867 1.5364 0.263601L5.4 4.12721L9.26361 0.263601C9.61506 -0.087867 10.1849 -0.087867 10.5364 0.263601C10.8878 0.615078 10.8878 1.18492 10.5364 1.5364L6.67278 5.4L10.5364 9.26361C10.8878 9.61506 10.8878 10.1849 10.5364 10.5364C10.1849 10.8878 9.61506 10.8878 9.26361 10.5364L5.4 6.67278L1.5364 10.5364C1.18492 10.8878 0.615078 10.8878 0.263601 10.5364C-0.087867 10.1849 -0.087867 9.61506 0.263601 9.26361L4.12721 5.4L0.263601 1.5364C-0.087867 1.18492 -0.087867 0.615078 0.263601 0.263601Z" fill="#121212"/>
</svg>
