<svg width="14" height="13" viewBox="0 0 14 13" fill="none" xmlns="http://www.w3.org/2000/svg">
<path d="M13.1373 2.19467L11.138 0.195334C11.0762 0.133307 11.0027 0.0841141 10.9219 0.0505941C10.8409 0.0170674 10.7542 -0.000125972 10.6667 6.94812e-07H2.66667C2.57911 -0.000125972 2.49238 0.0170674 2.4115 0.0505941C2.3306 0.0841141 2.25714 0.133307 2.19534 0.195334L0.196002 2.19467C0.133715 2.25645 0.084315 2.32999 0.0506684 2.41101C0.0170217 2.49203 -0.000198278 2.57893 1.72235e-06 2.66667V11.3333C1.72235e-06 12.0687 0.598002 12.6667 1.33334 12.6667H12C12.7353 12.6667 13.3333 12.0687 13.3333 11.3333V2.66667C13.3335 2.57893 13.3163 2.49203 13.2827 2.41101C13.249 2.32999 13.1996 2.25645 13.1373 2.19467ZM2.94267 1.33333H10.3907L11.0573 2H2.276L2.94267 1.33333ZM8 8V10H5.33334V8H3.33334L6.66667 4.66667L10 8H8Z" fill="#121212"/>
</svg>
