<svg width="13" height="11" viewBox="0 0 13 11" fill="none" xmlns="http://www.w3.org/2000/svg">
<path d="M12.2461 9.95969L11.4662 3.39719C11.4409 3.18337 11.3377 2.98638 11.1762 2.84392C11.0148 2.70145 10.8065 2.62351 10.5912 2.625H8.75207C8.75207 1.92881 8.47551 1.26113 7.98322 0.768845C7.49094 0.276562 6.82326 0 6.12707 0C5.43087 0 4.7632 0.276562 4.27091 0.768845C3.77863 1.26113 3.50207 1.92881 3.50207 2.625H1.66074C1.44544 2.62351 1.23714 2.70145 1.07571 2.84392C0.914273 2.98638 0.811033 3.18337 0.78574 3.39719L0.00589599 9.95969C-0.00839512 10.0822 0.00336436 10.2063 0.0404033 10.3239C0.0774423 10.4415 0.138924 10.55 0.220818 10.6422C0.303304 10.7348 0.404382 10.8089 0.517459 10.8598C0.630536 10.9107 0.75307 10.9372 0.877068 10.9375H11.3727C11.4974 10.9378 11.6208 10.9116 11.7347 10.8607C11.8486 10.8098 11.9503 10.7353 12.0333 10.6422C12.1148 10.5498 12.1759 10.4413 12.2126 10.3237C12.2492 10.206 12.2606 10.082 12.2461 9.95969ZM6.12707 0.875C6.5912 0.875 7.03632 1.05937 7.3645 1.38756C7.69269 1.71575 7.87707 2.16087 7.87707 2.625H4.37707C4.37707 2.16087 4.56144 1.71575 4.88963 1.38756C5.21782 1.05937 5.66294 0.875 6.12707 0.875ZM0.877068 10.0625L1.66074 3.5H3.50207V4.8125C3.50207 4.92853 3.54816 5.03981 3.63021 5.12186C3.71226 5.20391 3.82354 5.25 3.93957 5.25C4.0556 5.25 4.16688 5.20391 4.24893 5.12186C4.33097 5.03981 4.37707 4.92853 4.37707 4.8125V3.5H7.87707V4.8125C7.87707 4.92853 7.92316 5.03981 8.00521 5.12186C8.08726 5.20391 8.19854 5.25 8.31457 5.25C8.4306 5.25 8.54188 5.20391 8.62393 5.12186C8.70597 5.03981 8.75207 4.92853 8.75207 4.8125V3.5H10.5978L11.3727 10.0625H0.877068Z" fill="#1C1C1C" fill-opacity="0.6"/>
</svg>
