<svg width="15" height="15" viewBox="0 0 15 15" fill="none" xmlns="http://www.w3.org/2000/svg">
<path d="M7.35758 3.98258C6.69006 3.98258 6.03754 4.18052 5.48253 4.55137C4.92751 4.92222 4.49493 5.44932 4.23948 6.06602C3.98404 6.68272 3.9172 7.36132 4.04743 8.01601C4.17765 8.67069 4.49909 9.27206 4.97109 9.74406C5.44309 10.2161 6.04446 10.5375 6.69915 10.6677C7.35383 10.798 8.03243 10.7311 8.64913 10.4757C9.26583 10.2202 9.79294 9.78764 10.1638 9.23263C10.5346 8.67761 10.7326 8.02509 10.7326 7.35758C10.7316 6.46276 10.3758 5.60485 9.74303 4.97212C9.1103 4.33939 8.2524 3.98351 7.35758 3.98258ZM7.35758 9.60758C6.91257 9.60758 6.47755 9.47562 6.10754 9.22838C5.73753 8.98115 5.44914 8.62975 5.27885 8.21861C5.10855 7.80748 5.06399 7.35508 5.15081 6.91862C5.23763 6.48217 5.45192 6.08125 5.76659 5.76659C6.08125 5.45192 6.48217 5.23763 6.91862 5.15081C7.35508 5.06399 7.80748 5.10855 8.21861 5.27885C8.62975 5.44914 8.98115 5.73753 9.22838 6.10754C9.47562 6.47755 9.60758 6.91257 9.60758 7.35758C9.60758 7.95431 9.37052 8.52661 8.94857 8.94857C8.52661 9.37052 7.95431 9.60758 7.35758 9.60758ZM13.5451 7.50945C13.5479 7.4082 13.5479 7.30695 13.5451 7.2057L14.5941 5.89508C14.6491 5.82626 14.6872 5.74549 14.7053 5.65927C14.7234 5.57304 14.7209 5.48378 14.6982 5.39867C14.5262 4.75222 14.269 4.13153 13.9332 3.55297C13.8892 3.47725 13.8282 3.41285 13.755 3.36487C13.6817 3.3169 13.5983 3.28669 13.5113 3.27664L11.8435 3.09101C11.7741 3.01789 11.7038 2.94758 11.6326 2.88008L11.4357 1.20804C11.4256 1.12101 11.3953 1.03754 11.3472 0.964293C11.2991 0.891048 11.2345 0.830053 11.1587 0.78617C10.5799 0.451023 9.95925 0.194022 9.31297 0.0218729C9.2278 -0.000769876 9.13851 -0.00308576 9.05228 0.0151119C8.96606 0.0333095 8.88531 0.0715115 8.81656 0.126639L7.50945 1.17008C7.4082 1.17008 7.30695 1.17008 7.2057 1.17008L5.89508 0.123123C5.82626 0.0681163 5.74549 0.0300418 5.65927 0.0119667C5.57304 -0.00610833 5.48378 -0.0036786 5.39867 0.0190604C4.75232 0.191345 4.13168 0.448588 3.55297 0.78406C3.47725 0.828024 3.41285 0.889055 3.36487 0.962295C3.3169 1.03553 3.28669 1.11896 3.27664 1.20594L3.09101 2.87656C3.01789 2.9464 2.94758 3.01672 2.88008 3.0875L1.20804 3.27945C1.12101 3.28958 1.03754 3.3199 0.964293 3.368C0.891048 3.41609 0.830053 3.48064 0.78617 3.55648C0.451023 4.13527 0.194022 4.7559 0.0218729 5.40219C-0.000769876 5.48735 -0.00308576 5.57665 0.0151119 5.66287C0.0333095 5.7491 0.0715115 5.82984 0.126639 5.89859L1.17008 7.2057C1.17008 7.30695 1.17008 7.4082 1.17008 7.50945L0.123123 8.82008C0.0681163 8.88889 0.0300418 8.96966 0.0119667 9.05588C-0.00610833 9.14211 -0.0036786 9.23137 0.0190604 9.31648C0.191037 9.96293 0.448296 10.5836 0.78406 11.1622C0.828024 11.2379 0.889055 11.3023 0.962295 11.3503C1.03553 11.3983 1.11896 11.4285 1.20594 11.4385L2.87375 11.6241C2.94359 11.6973 3.0139 11.7676 3.08469 11.8351L3.27945 13.5071C3.28958 13.5941 3.3199 13.6776 3.368 13.7509C3.41609 13.8241 3.48064 13.8851 3.55648 13.929C4.13527 14.2641 4.7559 14.5211 5.40219 14.6933C5.48735 14.7159 5.57665 14.7182 5.66287 14.7C5.7491 14.6818 5.82984 14.6436 5.89859 14.5885L7.2057 13.5451C7.30695 13.5479 7.4082 13.5479 7.50945 13.5451L8.82008 14.5941C8.88889 14.6491 8.96966 14.6872 9.05588 14.7053C9.14211 14.7234 9.23137 14.7209 9.31648 14.6982C9.96293 14.5262 10.5836 14.269 11.1622 13.9332C11.2379 13.8892 11.3023 13.8282 11.3503 13.755C11.3983 13.6817 11.4285 13.5983 11.4385 13.5113L11.6241 11.8435C11.6973 11.7741 11.7676 11.7038 11.8351 11.6326L13.5071 11.4357C13.5941 11.4256 13.6776 11.3953 13.7509 11.3472C13.8241 11.2991 13.8851 11.2345 13.929 11.1587C14.2641 10.5799 14.5211 9.95925 14.6933 9.31297C14.7159 9.2278 14.7182 9.13851 14.7 9.05228C14.6818 8.96606 14.6436 8.88531 14.5885 8.81656L13.5451 7.50945ZM12.413 7.05242C12.425 7.25568 12.425 7.45947 12.413 7.66273C12.4047 7.80189 12.4483 7.93921 12.5354 8.04805L13.5331 9.29469C13.4186 9.65853 13.272 10.0115 13.0951 10.3494L11.506 10.5294C11.3676 10.5447 11.2399 10.6109 11.1474 10.715C11.0121 10.8672 10.8679 11.0114 10.7157 11.1467C10.6116 11.2392 10.5454 11.3669 10.5301 11.5053L10.3536 13.093C10.0157 13.27 9.66278 13.4166 9.2989 13.531L8.05156 12.5333C7.95175 12.4535 7.82776 12.4101 7.7 12.4102H7.66625C7.46299 12.4222 7.2592 12.4222 7.05594 12.4102C6.91677 12.4019 6.77946 12.4455 6.67062 12.5326L5.42047 13.531C5.05662 13.4165 4.70367 13.2699 4.36578 13.093L4.18578 11.506C4.17042 11.3676 4.10428 11.2399 4.00015 11.1474C3.84793 11.0121 3.70378 10.8679 3.56844 10.7157C3.476 10.6116 3.34823 10.5454 3.20984 10.5301L1.62219 10.3529C1.44513 10.015 1.29854 9.66208 1.18414 9.2982L2.18187 8.05086C2.26899 7.94202 2.31259 7.80471 2.30422 7.66555C2.29226 7.46228 2.29226 7.25849 2.30422 7.05523C2.31259 6.91607 2.26899 6.77876 2.18187 6.66992L1.18414 5.42047C1.29862 5.05662 1.44522 4.70367 1.62219 4.36578L3.20914 4.18578C3.34752 4.17042 3.47529 4.10428 3.56773 4.00015C3.70308 3.84793 3.84723 3.70378 3.99945 3.56844C4.10399 3.47594 4.1704 3.34787 4.18578 3.20914L4.36226 1.62219C4.70012 1.44513 5.05308 1.29854 5.41695 1.18414L6.66429 2.18187C6.77313 2.26899 6.91045 2.31259 7.04961 2.30422C7.25287 2.29226 7.45666 2.29226 7.65992 2.30422C7.79908 2.31259 7.93639 2.26899 8.04523 2.18187L9.29469 1.18414C9.65853 1.29862 10.0115 1.44522 10.3494 1.62219L10.5294 3.20914C10.5447 3.34752 10.6109 3.47529 10.715 3.56773C10.8672 3.70308 11.0114 3.84723 11.1467 3.99945C11.2392 4.10357 11.3669 4.16971 11.5053 4.18508L13.093 4.36156C13.27 4.69941 13.4166 5.05237 13.531 5.41625L12.5333 6.66359C12.4453 6.77335 12.4017 6.91207 12.4109 7.05242H12.413Z" fill="#121212"/>
</svg>
