<svg width="12" height="12" viewBox="0 0 12 12" fill="none" xmlns="http://www.w3.org/2000/svg">
<path fill-rule="evenodd" clip-rule="evenodd" d="M5.6 11.2C7.08519 11.2 8.50962 10.61 9.55983 9.55983C10.61 8.50962 11.2 7.08519 11.2 5.6C11.2 4.11479 10.61 2.69041 9.55983 1.64021C8.50962 0.589995 7.08519 0 5.6 0C4.11479 0 2.69041 0.589995 1.64021 1.64021C0.589995 2.69041 0 4.11479 0 5.6C0 7.08519 0.589995 8.50962 1.64021 9.55983C2.69041 10.61 4.11479 11.2 5.6 11.2ZM6.3 3.5C6.3 3.31435 6.22622 3.1363 6.09497 3.00502C5.96372 2.87375 5.78564 2.8 5.6 2.8C5.41435 2.8 5.2363 2.87375 5.10502 3.00502C4.97375 3.1363 4.9 3.31435 4.9 3.5V4.9H3.5C3.31435 4.9 3.1363 4.97375 3.00502 5.10502C2.87375 5.2363 2.8 5.41435 2.8 5.6C2.8 5.78564 2.87375 5.96372 3.00502 6.09497C3.1363 6.22622 3.31435 6.3 3.5 6.3H4.9V7.7C4.9 7.88564 4.97375 8.06372 5.10502 8.19497C5.2363 8.32622 5.41435 8.4 5.6 8.4C5.78564 8.4 5.96372 8.32622 6.09497 8.19497C6.22622 8.06372 6.3 7.88564 6.3 7.7V6.3H7.7C7.88564 6.3 8.06372 6.22622 8.19497 6.09497C8.32622 5.96372 8.4 5.78564 8.4 5.6C8.4 5.41435 8.32622 5.2363 8.19497 5.10502C8.06372 4.97375 7.88564 4.9 7.7 4.9H6.3V3.5Z" fill="#1E88E5"/>
</svg>
