<svg width="10" height="10" viewBox="0 0 10 10" fill="none" xmlns="http://www.w3.org/2000/svg">
<path d="M8.75 0H0.875C0.642936 0 0.420376 0.0921872 0.256282 0.256282C0.0921872 0.420376 0 0.642936 0 0.875V8.75C0 8.98206 0.0921872 9.20462 0.256282 9.36872C0.420376 9.53281 0.642936 9.625 0.875 9.625H8.75C8.98206 9.625 9.20462 9.53281 9.36872 9.36872C9.53281 9.20462 9.625 8.98206 9.625 8.75V0.875C9.625 0.642936 9.53281 0.420376 9.36872 0.256282C9.20462 0.0921872 8.98206 0 8.75 0ZM0.875 0.875H4.375V8.75H0.875V0.875ZM8.75 8.75H5.25V0.875H8.75V8.75Z" fill="#121212"/>
</svg>
