<svg width="14" height="14" viewBox="0 0 14 14" fill="none" xmlns="http://www.w3.org/2000/svg">
<path d="M12.2009 2.68214C11.9825 2.57819 11.738 2.52002 11.48 2.52002H2.52C2.26197 2.52002 2.01753 2.57819 1.79907 2.68213L6.65017 6.56305C6.85474 6.72663 7.14532 6.72663 7.34983 6.56305L12.2009 2.68214Z" fill="#FF9F0E"/>
<path d="M1.27907 3.69634C1.13833 3.58363 0.928059 3.63233 0.886098 3.80769C0.855976 3.93358 0.840027 4.06497 0.840027 4.20009V9.80009C0.840027 10.728 1.59219 11.4801 2.52003 11.4801H11.48C12.4079 11.4801 13.16 10.728 13.16 9.80009V4.20009C13.16 4.06499 13.1441 3.9336 13.1139 3.80773C13.072 3.63236 12.8617 3.58365 12.721 3.69637L8.04952 7.43767C7.43599 7.92851 6.56412 7.92851 5.95059 7.43767L1.27907 3.69634Z" fill="#FF9F0E"/>
</svg>
