<svg width="11" height="11" viewBox="0 0 11 11" fill="none" xmlns="http://www.w3.org/2000/svg">
<path fill-rule="evenodd" clip-rule="evenodd" d="M3.9 1.3C2.46406 1.3 1.3 2.46406 1.3 3.9C1.3 5.33592 2.46406 6.5 3.9 6.5C5.33592 6.5 6.5 5.33592 6.5 3.9C6.5 2.46406 5.33592 1.3 3.9 1.3ZM0 3.9C0 1.74609 1.74609 0 3.9 0C6.05391 0 7.8 1.74609 7.8 3.9C7.8 4.74229 7.53298 5.5222 7.07896 6.15973L10.2096 9.29039C10.4634 9.54421 10.4634 9.95579 10.2096 10.2096C9.95579 10.4634 9.54421 10.4634 9.29039 10.2096L6.15973 7.07896C5.5222 7.53298 4.74229 7.8 3.9 7.8C1.74609 7.8 0 6.05391 0 3.9Z" fill="#121212" fill-opacity="0.6"/>
</svg>
